<svg width="20" height="20" viewBox="0 0 1000 1000" xmlns="http://www.w3.org/2000/svg">
<!--  <text x="400" y="800" style="font-size: 500; font-family: sans-serif; fill:#000000; stroke: #000000; font-weight: bold; color:black">!</text>-->

  <!-- Draw background triangle, so the mark gets black, and triangle gets bigger border -->
<!--  <path d="M 0 1000 L 500 0 L 1000 1000 L 0 1000 z" fill="black" stroke="#666" stroke-width="50" /> -->

  <!-- Triangle -->
  <path d="M 0 1000 L 500 0 L 1000 1000 L 0 1000 z" fill="#fc3" stroke="#333" stroke-width="50" />

  <!-- Exclamation mark -->
  <path d="M292.571 237.714v-128q0-14.857-10.857-25.714t-25.714-10.857h-146.286q-14.857 0-25.714 10.857t-10.857 25.714v128q0 14.857 10.857 25.714t25.714 10.857h146.286q14.857 0 25.714-10.857t10.857-25.714zM309.714 841.143l-16-438.857q-0.571-14.857-11.714-25.714t-26-10.857h-146.286q-14.857 0-26 10.857t-11.714 25.714l-16 438.857q-0.571 14.857 10 25.714t25.429 10.857h182.857q14.857 0 25.429-10.857t10-25.714z" style="fill:black;" transform="rotate(180,500,500) translate(390,100) scale(0.65)" />

<!--
  <circle cx="450" cy="450" r="440" stroke="black" stroke-width="50" fill="#ff3"></circle>
  <path d="M292.571 237.714v-128q0-14.857-10.857-25.714t-25.714-10.857h-146.286q-14.857 0-25.714 10.857t-10.857 25.714v128q0 14.857 10.857 25.714t25.714 10.857h146.286q14.857 0 25.714-10.857t10.857-25.714zM309.714 841.143l-16-438.857q-0.571-14.857-11.714-25.714t-26-10.857h-146.286q-14.857 0-26 10.857t-11.714 25.714l-16 438.857q-0.571 14.857 10 25.714t25.429 10.857h182.857q14.857 0 25.429-10.857t10-25.714z" style="fill:black;" transform="rotate(180,500,500) translate(400,190) scale(0.65)" />-->

  <!-- Draw background triangle, so the mark gets black (no border) -->
  <!--
  <path d="M 100 900 L 500 100  L 900 900 L 100 900 z" fill="black" stroke="#666" stroke-width="50" />-->

  <!-- Exclamation mark with triangle -->
  <!--
  <path d="M998.963 52.224l-456.038 851.558c-6.349 11.008-18.125 17.818-30.925 17.818-12.851 0-24.627-6.81-30.925-17.818l-455.987-851.558c-6.195-10.803-6.093-24.115 0.256-34.816 6.4-10.803 18.022-17.408 30.618-17.408h912.077c12.544 0 24.269 6.605 30.618 17.408 6.349 10.701 6.451 24.013 0.307 34.816zM563.2 102.4h-102.4v102.4h102.4v-102.4zM563.2 281.6h-102.4v332.8h102.4v-332.8z" fill="#ff3" transform="scale(0.9) translate(150,140) rotate(180,450,450)" style="fill:#fc3;"></path>-->

</svg>
